<?xml version="1.0" encoding="UTF-8" standalone="no"?>
<!-- Created with Inkscape (http://www.inkscape.org/) -->

<svg
   xmlns:dc="http://purl.org/dc/elements/1.1/"
   xmlns:cc="http://creativecommons.org/ns#"
   xmlns:rdf="http://www.w3.org/1999/02/22-rdf-syntax-ns#"
   xmlns:svg="http://www.w3.org/2000/svg"
   xmlns="http://www.w3.org/2000/svg"
   xmlns:sodipodi="http://sodipodi.sourceforge.net/DTD/sodipodi-0.dtd"
   xmlns:inkscape="http://www.inkscape.org/namespaces/inkscape"
   width="690.69531"
   height="620.52496"
   id="svg3589"
   version="1.1"
   inkscape:version="0.47 r22583"
   sodipodi:docname="duck_pitr_Ducky_icon.svg">
  <defs
     id="defs3591">
    <inkscape:perspective
       sodipodi:type="inkscape:persp3d"
       inkscape:vp_x="0 : 495 : 1"
       inkscape:vp_y="0 : 1000 : 0"
       inkscape:vp_z="765 : 495 : 1"
       inkscape:persp3d-origin="382.5 : 330 : 1"
       id="perspective3598" />
    <inkscape:perspective
       id="perspective3608"
       inkscape:persp3d-origin="0.5 : 0.33333333 : 1"
       inkscape:vp_z="1 : 0.5 : 1"
       inkscape:vp_y="0 : 1000 : 0"
       inkscape:vp_x="0 : 0.5 : 1"
       sodipodi:type="inkscape:persp3d" />
  </defs>
  <sodipodi:namedview
     inkscape:document-units="in"
     pagecolor="#ffffff"
     bordercolor="#666666"
     borderopacity="1.0"
     inkscape:pageopacity="0.0"
     inkscape:pageshadow="2"
     inkscape:zoom="0.12727922"
     inkscape:cx="234.18772"
     inkscape:cy="865.05162"
     inkscape:current-layer="layer1"
     id="namedview3593"
     showgrid="false"
     inkscape:window-width="550"
     inkscape:window-height="483"
     inkscape:window-x="844"
     inkscape:window-y="114"
     inkscape:window-maximized="0" />
  <metadata
     id="metadata3595">
    <rdf:RDF>
      <cc:Work
         rdf:about="">
        <dc:format>image/svg+xml</dc:format>
        <dc:type
           rdf:resource="http://purl.org/dc/dcmitype/StillImage" />
        <dc:title></dc:title>
      </cc:Work>
    </rdf:RDF>
  </metadata>
  <g
     inkscape:label="Layer 1"
     inkscape:groupmode="layer"
     id="layer1"
     transform="translate(-50.928682,-361.09191)">
    <g
       id="g3628"
       transform="matrix(5.9031646,0,0,5.9031646,-2128.9663,-1450.5053)">
      <path
         id="path3297"
         d="m 470.18739,326.66258 c -4.8905,0 -8.79104,3.96765 -8.79104,8.85815 l 0,10.40161 c 2.06772,1.0216 4.41124,1.61058 6.84493,1.61058 8.86678,0 16.03862,-7.5726 16.03862,-16.91102 0,-1.36185 -0.1808,-2.69036 -0.46975,-3.95932 l -13.62276,0 z"
         style="fill:#ffffff;fill-opacity:1;stroke:#000000;stroke-width:4;stroke-linejoin:round;stroke-miterlimit:4;stroke-opacity:1;stroke-dasharray:none;display:inline" />
      <path
         sodipodi:nodetypes="cscsccscscscsc"
         id="path2278"
         d="m 443.47872,309.88577 c -13.04271,0 -23.62173,10.88772 -23.62173,24.29281 0,7.73156 3.50926,14.61 8.99236,19.05845 -3.24364,-0.33783 -6.56215,-0.53686 -9.93186,-0.53686 -4.86291,0 -9.60524,0.45112 -14.22673,1.14082 -3.88471,-8.12683 -12.93385,-15.10633 -20.40967,-17.24032 -10.11889,11.16129 -12.09795,22.85721 -12.00219,33.28352 0.11133,12.12244 3.61854,21.56039 8.5888,28.85152 11.51583,6.47355 25.35236,10.2674 40.19722,10.2674 12.48057,0 24.22346,-2.68562 34.4931,-7.38179 6.567,-7.88883 10.53583,-17.98219 10.53583,-28.99031 0,-7.85774 -2.0187,-15.23013 -5.5699,-21.67563 4.06659,-4.3627 6.57651,-10.26267 6.57651,-16.7768 0,-13.40509 -10.57902,-24.2928 -23.62174,-24.29281 z"
         style="fill:#ffffff;fill-opacity:1;stroke:#000000;stroke-width:6;stroke-linejoin:round;stroke-miterlimit:4;stroke-opacity:1;stroke-dasharray:none;display:inline" />
      <path
         transform="matrix(1.6225444,0,0,1.5047329,383.43917,305.48376)"
         d="m 43.129975,14.64191 c 0,1.406348 -1.104443,2.546419 -2.466843,2.546419 -1.3624,0 -2.466844,-1.140071 -2.466844,-2.546419 0,-1.406349 1.104444,-2.54642 2.466844,-2.54642 1.3624,0 2.466843,1.140071 2.466843,2.54642 z"
         sodipodi:ry="2.5464191"
         sodipodi:rx="2.4668436"
         sodipodi:cy="14.64191"
         sodipodi:cx="40.663132"
         id="path3307"
         style="fill:#050505;fill-opacity:1;stroke:#000000;stroke-width:2;stroke-linejoin:round;stroke-miterlimit:4;stroke-opacity:1;stroke-dasharray:none;display:inline"
         sodipodi:type="arc" />
    </g>
  </g>
</svg>
